#!OML:ASF X:\für Bonn\!DataBase\2005_08_12_Daniel\c3d\Daniel.ASF
:FULLY-SPECIFIED
:DEGREES
263
root 0.827817 16.6348 0.417583 -23.5258 -82.7484 14.798
lowerback 19.0583 -1.40261 -1.14245
upperback 1.71814 -2.26343 -0.617731
thorax -8.80261 -1.10126 0.580715
lowerneck -13.3886 -0.882959 -1.64631
upperneck -6.77017 -1.28722 0.0402598
head 0.096696 -0.751432 0.233185
rclavicle 7.80851e-015 1.19271e-015
rhumerus -70.4383 -3.34112 -75.7004
rradius 65.3703
rwrist 5.80502
rhand -15.7164 363.404
rfingers 7.12502
rthumb 10.4738 333.685
lclavicle 7.80851e-015 1.19271e-015
lhumerus -255.807 186.917 -83.7396
lradius 100.876
lwrist 19.852
lhand -1.4946 6.31233
lfingers 7.12502
lthumb 24.1581 34.8111
rfemur 0.28131 0.0653953 9.5199
rtibia 39.1857
rfoot 333.013 -6.2049
rtoes -15.5805
lfemur -8.09046 -10.7199 -18.0694
ltibia 46.1351
lfoot -28.4503 1.19365
ltoes -3.11567
264
root 0.846316 16.5552 0.414227 -25.2298 -82.4807 16.1307
lowerback 19.4975 -1.48913 -1.35121
upperback 1.97637 -2.4411 -0.642431
thorax -8.75025 -1.18595 0.728759
lowerneck -12.9526 -0.773072 -1.5551
upperneck -6.99246 -1.16317 -0.0229959
head -0.0458708 -0.690266 0.205708
rclavicle -1.50207e-014 -1.98785e-015
rhumerus -70.8237 -2.5051 -75.751
rradius 66.0805
rwrist 3.93622
rhand -16.5534 363.006
rfingers 7.12502
rthumb 9.66626 333.247
lclavicle -1.50207e-014 -1.98785e-015
lhumerus -255.729 188.089 -83.5575
lradius 101.302
lwrist 20.0345
lhand -0.595583 5.9765
lfingers 7.12502
lthumb 25.0198 34.358
rfemur 0.36129 -0.389906 9.13412
rtibia 39.897
rfoot 331.855 -6.06229
rtoes -15.9699
lfemur -7.89926 -10.4545 -18.3091
ltibia 46.4312
lfoot -29.2231 0.631696
ltoes -2.86025
265
root 0.867749 16.4887 0.410215 -26.5224 -82.299 17.0721
lowerback 19.9536 -1.57017 -1.47192
upperback 2.20308 -2.5944 -0.670027
thorax -8.74384 -1.26159 0.819613
lowerneck -12.5141 -0.656286 -1.53376
upperneck -7.17318 -1.01521 0.0293845
head -0.173384 -0.613725 0.225549
rclavicle 8.98258e-015 4.96962e-015
rhumerus -71.0042 -1.70031 -75.8329
rradius 66.568
rwrist 2.35549
rhand -17.235 362.4
rfingers 7.12502
rthumb 9.00854 332.612
lclavicle 8.98258e-015 4.96962e-015
lhumerus -255.066 189.242 -83.4303
lradius 101.372
lwrist 20.0549
lhand 0.306133 5.78939
lfingers 7.12502
lthumb 25.8836 34.0477
rfemur 0.408751 -0.770365 8.81976
rtibia 40.5395
rfoot 330.915 -5.80685
rtoes -16.0441
lfemur -7.75123 -10.2079 -18.4733
ltibia 46.7446
lfoot -29.9066 0.183511
ltoes -2.64553
266
root 0.890151 16.4374 0.405522 -27.5462 -82.1568 17.7657
lowerback 20.3685 -1.65533 -1.5315
upperback 2.42724 -2.73968 -0.697924
thorax -8.71893 -1.33604 0.873003
lowerneck -12.13 -0.539857 -1.47688
upperneck -7.32431 -0.8706 0.0707695
head -0.282507 -0.540207 0.235187
rclavicle 3.58993e-014 -8.54774e-015
rhumerus -70.8289 -1.21097 -75.7535
rradius 66.7511
rwrist 1.37514
rhand -17.6487 361.657
rfingers 7.12502
rthumb 8.60937 331.853
lclavicle 3.58993e-014 -8.54774e-015
lhumerus -254.163 190.316 -83.3721
lradius 101.177
lwrist 19.8245
lhand 1.15942 5.52552
lfingers 7.12502
lthumb 26.7004 33.662
rfemur 0.444961 -1.099 8.55378
rtibia 41.0926
rfoot 330.223 -5.52018
rtoes -16.0131
lfemur -7.65228 -9.97265 -18.5779
ltibia 47.0866
lfoot -30.4427 -0.187148
ltoes -2.5781
267
root 0.915513 16.3919 0.399075 -28.0929 -82.0912 17.9662
lowerback 20.8087 -1.74342 -1.49071
upperback 2.63108 -2.86728 -0.726702
thorax -8.73392 -1.40468 0.86598
lowerneck -11.7811 -0.406775 -1.29255
upperneck -7.39562 -0.71602 0.0457184
head -0.36155 -0.46461 0.203245
rclavicle -7.19973e-015 -9.93923e-017
rhumerus -70.3213 -0.862383 -75.6572
rradius 66.6703
rwrist 0.740266
rhand -17.7667 360.923
rfingers 7.12502
rthumb 8.49548 331.113
lclavicle -7.19973e-015 -9.93923e-017
lhumerus -253.294 191.31 -83.3893
lradius 100.66
lwrist 19.32
lhand 2.00029 5.04248
lfingers 7.12502
lthumb 27.5049 33.0536
rfemur 0.51496 -1.36422 8.39977
rtibia 41.5395
rfoot 329.776 -5.24202
rtoes -15.9491
lfemur -7.55804 -9.75566 -18.5911
ltibia 47.456
lfoot -30.8416 -0.4786
ltoes -2.5662
268
root 0.941204 16.3555 0.391858 -28.5039 -82.0741 18.0721
lowerback 21.1685 -1.82292 -1.39911
upperback 2.83532 -2.97044 -0.761994
thorax -8.70757 -1.46398 0.813924
lowerneck -11.4178 -0.27226 -1.03757
upperneck -7.48475 -0.567507 -0.0196505
head -0.448071 -0.394053 0.147089
rclavicle -3.68373e-015 -1.68967e-015
rhumerus -69.4768 -0.668047 -75.5268
rradius 66.2911
rwrist 0.545208
rhand -17.6837 360.395
rfingers 7.12502
rthumb 8.57562 330.589
lclavicle -3.68373e-015 -1.68967e-015
lhumerus -252.233 192.181 -83.4844
lradius 99.8584
lwrist 18.5135
lhand 2.88722 4.68026
lfingers 7.12502
lthumb 28.3528 32.5535
rfemur 0.578952 -1.57348 8.29679
rtibia 41.8949
rfoot 329.49 -4.96266
rtoes -15.8344
lfemur -7.50379 -9.59553 -18.5769
ltibia 47.8181
lfoot -31.1625 -0.680235
ltoes -2.47266
269
root 0.967749 16.3268 0.382459 -28.5827 -82.108 17.8728
lowerback 21.464 -1.91017 -1.28447
upperback 3.028 -3.07327 -0.768163
thorax -8.6584 -1.52326 0.778566
lowerneck -11.0383 -0.142116 -0.802166
upperneck -7.55256 -0.420052 -0.100258
head -0.529603 -0.323223 0.0892545
rclavicle 9.38636e-015 -5.96354e-016
rhumerus -68.4384 -0.552627 -75.3846
rradius 65.7748
rwrist 0.585723
rhand -17.3873 360.212
rfingers 7.12502
rthumb 8.86159 330.418
lclavicle 9.38636e-015 -5.96354e-016
lhumerus -250.972 192.852 -83.6334
lradius 98.8126
lwrist 17.4327
lhand 3.87277 4.58183
lfingers 7.12502
lthumb 29.2942 32.2946
rfemur 0.640517 -1.7296 8.28857
rtibia 42.1653
rfoot 329.337 -4.74162
rtoes -15.7153
lfemur -7.46324 -9.46432 -18.4925
ltibia 48.1402
lfoot -31.4061 -0.854427
ltoes -2.44467
270
root 0.994226 16.3071 0.372035 -28.5158 -82.1906 17.5577
lowerback 21.6948 -1.99776 -1.11933
upperback 3.19877 -3.16409 -0.792996
thorax -8.60247 -1.57805 0.689042
lowerneck -10.5809 -0.00661114 -0.514519
upperneck -7.60865 -0.26725 -0.200446
head -0.618876 -0.249868 0.0170224
rclavicle -1.21259e-014 4.57205e-015
rhumerus -67.3218 -0.56958 -75.2675
rradius 65.1902
rwrist 0.910253
rhand -16.965 360.372
rfingers 7.12502
rthumb 9.26909 330.596
lclavicle -1.21259e-014 4.57205e-015
lhumerus -249.531 193.394 -83.8654
lradius 97.6032
lwrist 16.1922
lhand 5.07804 4.76896
lfingers 7.12502
lthumb 30.4444 32.2748
rfemur 0.693178 -1.83955 8.33517
rtibia 42.3626
rfoot 329.285 -4.56151
rtoes -15.6046
lfemur -7.40215 -9.37956 -18.3833
ltibia 48.3654
lfoot -31.5631 -0.908362
ltoes -2.38358
271
root 1.0206 16.2958 0.358922 -28.2083 -82.3082 17.0527
lowerback 21.8368 -2.08005 -0.931039
upperback 3.35837 -3.23863 -0.80687
thorax -8.51238 -1.62535 0.590388
lowerneck -10.1423 0.118251 -0.2678
upperneck -7.64936 -0.120309 -0.264959
head -0.699701 -0.178296 -0.0384093
rclavicle 1.32005e-014 3.8763e-015
rhumerus -66.0731 -0.74763 -75.1343
rradius 64.5651
rwrist 1.5375
rhand -16.4863 360.829
rfingers 7.12502
rthumb 9.731 331.074
lclavicle 1.32005e-014 3.8763e-015
lhumerus -247.947 193.84 -84.1061
lradius 96.307
lwrist 14.8611
lhand 6.41473 5.26825
lfingers 7.12502
lthumb 31.7184 32.5303
rfemur 0.709623 -1.90656 8.45495
rtibia 42.475
rfoot 329.297 -4.40973
rtoes -15.4649
lfemur -7.33633 -9.30788 -18.2199
ltibia 48.4741
lfoot -31.5878 -0.952383
ltoes -2.36027
272
root 1.044 16.3034 0.343069 -27.8306 -82.4671 16.4892
lowerback 21.9357 -2.15281 -0.757062
upperback 3.49712 -3.30159 -0.812465
thorax -8.42144 -1.66574 0.504305
lowerneck -9.63423 0.244655 -0.00453569
upperneck -7.68875 0.030713 -0.34577
head -0.790707 -0.104262 -0.102039
rclavicle 3.49737e-015 5.26779e-015
rhumerus -64.751 -1.05228 -74.9959
rradius 63.9162
rwrist 2.45036
rhand -16.0414 361.472
rfingers 7.12502
rthumb 10.1602 331.738
lclavicle 3.49737e-015 5.26779e-015
lhumerus -246.311 194.153 -84.3384
lradius 95.0484
lwrist 13.5066
lhand 7.94919 6.00348
lfingers 7.12502
lthumb 33.1787 32.9658
rfemur 0.73573 -1.92705 8.61915
rtibia 42.5114
rfoot 329.388 -4.36131
rtoes -15.4228
lfemur -7.17414 -9.25006 -18.0362
ltibia 48.4087
lfoot -31.5452 -0.894496
ltoes -2.49505
273
root 1.06753 16.3222 0.324582 -27.3345 -82.6596 15.8715
lowerback 21.9407 -2.21259 -0.594665
upperback 3.62039 -3.34613 -0.799919
thorax -8.29625 -1.69629 0.43555
lowerneck -9.18937 0.359693 0.235136
upperneck -7.61187 0.174974 -0.416979
head -0.836033 -0.0318783 -0.159879
rclavicle -3.91544e-014 -3.18055e-015
rhumerus -63.3295 -1.48296 -74.8585
rradius 63.2465
rwrist 3.65212
rhand -15.6998 362.235
rfingers 7.12502
rthumb 10.4897 332.517
lclavicle -3.91544e-014 -3.18055e-015
lhumerus -244.642 194.369 -84.5213
lradius 93.868
lwrist 12.2665
lhand 9.51148 6.817
lfingers 7.12502
lthumb 34.6628 33.4511
rfemur 0.724171 -1.85935 8.86077
rtibia 42.4547
rfoot 329.601 -4.45897
rtoes -15.4734
lfemur -7.00926 -9.21057 -17.825
ltibia 48.1988
lfoot -31.3729 -0.793012
ltoes -2.45009
